<svg width="174" height="33" viewBox="0 0 174 33" fill="none" xmlns="http://www.w3.org/2000/svg">
<path d="M45.6752 19.7121V5.55979H42.1544V15.3683C42.1679 16.2648 42.0428 17.1576 41.784 18.0119C41.5699 18.7227 41.2217 19.3809 40.76 19.9471C40.3448 20.4558 39.8264 20.8603 39.2428 21.1308C38.6633 21.408 38.0329 21.5477 37.3962 21.5397C36.4242 21.5647 35.4789 21.2035 34.7492 20.5282C34.1126 19.861 33.7849 19.0019 33.7849 17.9043V5.55979H30.2453V17.8397C30.2256 18.8376 30.3866 19.8303 30.7198 20.7649C31.0161 21.5908 31.4696 22.3445 32.0527 22.9798C32.6193 23.5922 33.3051 24.0687 34.0631 24.377C34.8738 24.7101 35.7373 24.8781 36.6077 24.872C37.6317 24.872 38.4936 24.6998 39.1933 24.3554C39.829 24.0627 40.4234 23.6795 40.9597 23.2166C41.4905 22.746 41.9352 22.1778 42.2721 21.5397H42.4564C42.4621 22.1282 42.6107 22.7054 42.8882 23.2166C43.1465 23.6777 43.505 24.0679 43.9344 24.3554C44.4259 24.6998 45.1034 24.872 46.0063 24.872C46.4978 24.8795 46.9878 24.8143 47.462 24.6783C47.7095 24.6137 47.9348 24.5491 48.1447 24.4846V21.5217H47.445C46.2691 21.5217 45.6752 20.9156 45.6752 19.7121ZM53.5531 19.6906V0.100442H50.0237L50.0049 20.4851C50.0049 21.9486 50.3326 23.0444 51.0102 23.7762C51.6877 24.5079 52.6315 24.872 53.8825 24.872C54.374 24.8797 54.8641 24.8144 55.3382 24.6783C55.5857 24.6137 55.811 24.5491 56.0209 24.4846V21.5217H55.3229C54.147 21.5217 53.5531 20.9156 53.5531 19.6906ZM69.698 20.9586C69.384 21.0727 69.0614 21.1591 68.7337 21.2169C68.3615 21.2877 67.984 21.3237 67.6057 21.3245C66.6209 21.3245 65.8819 21.0447 65.3699 20.4851C64.8579 19.9256 64.6105 19.0019 64.6105 17.7321V9.08756H69.5598V5.55979H64.6105V0.0573983H61.7808L61.0606 5.55979H57.8811V9.08756H61.0402V17.7554C61.0402 20.121 61.5743 21.8804 62.641 23.0677C63.7077 24.255 65.1242 24.8307 66.8872 24.8307C67.4232 24.834 67.9587 24.7908 68.488 24.7016C68.9326 24.6292 69.3714 24.5213 69.8004 24.3788C70.2081 24.2741 70.6014 24.1156 70.9712 23.9071L70.6213 20.5945C70.3272 20.7512 70.0176 20.8733 69.698 20.9586ZM74.9716 5.51854C74.7104 5.51857 74.4496 5.54016 74.1916 5.58311C73.9254 5.62615 73.6984 5.66919 73.509 5.71224C73.2855 5.79181 73.0575 5.8565 72.8263 5.90593V8.87414H73.5243C74.6934 8.87414 75.289 9.47495 75.289 10.6802V24.8289H78.8474V9.88387C78.8474 8.44908 78.518 7.34609 77.8421 6.61615C77.1663 5.8862 76.2225 5.51854 74.9716 5.51854ZM97.2109 8.01327C96.5689 7.22754 95.7785 6.59055 94.8899 6.14267C94.0511 5.7209 93.1335 5.50036 92.2036 5.49702C91.2856 5.46872 90.3735 5.66006 89.5361 6.05658C88.8981 6.36802 88.3098 6.78121 87.7919 7.28153C87.2893 7.78312 86.873 8.37229 86.5614 9.023H86.3771C86.3272 8.40647 86.1594 7.80685 85.8839 7.26001C85.6053 6.78361 85.235 6.37369 84.7968 6.05658C84.3035 5.71224 83.6482 5.51854 82.8273 5.51854C82.5388 5.51538 82.2506 5.53697 81.9654 5.58311C81.7432 5.61619 81.5235 5.66655 81.3084 5.73376C81.0831 5.81984 80.8783 5.88441 80.7144 5.94897V9.04452H81.4073C82.5781 9.04452 83.172 9.64713 83.172 10.8523H83.1925V32.9121H86.7219V23.8838C87.112 24.0761 87.5167 24.2339 87.9319 24.3554C88.3674 24.4998 88.8131 24.6077 89.2648 24.6783C89.8297 24.7673 90.4002 24.8105 90.9714 24.8074C92.1376 24.8187 93.2955 24.5997 94.3847 24.1617C95.4016 23.7553 96.3197 23.1164 97.0727 22.2912C97.8376 21.4111 98.4298 20.3811 98.8152 19.2602C99.247 18.0765 99.4518 16.7009 99.4518 15.1531C99.4745 13.7569 99.266 12.3672 98.8357 11.046C98.4792 9.93728 97.9281 8.90859 97.2109 8.01327ZM94.2977 19.8179C93.3334 20.8295 92.1012 21.346 90.6045 21.346C90.0945 21.3523 89.5854 21.3018 89.0856 21.1953C88.6687 21.1028 88.2577 20.983 87.8551 20.8366C87.4609 20.712 87.0822 20.5386 86.727 20.3201V14.8518C86.7147 14.0043 86.8394 13.1608 87.0956 12.3571C87.3163 11.6816 87.6646 11.06 88.1196 10.5295C88.5435 10.0461 89.0615 9.66433 89.6385 9.41039C90.2271 9.16964 90.8536 9.04794 91.4851 9.05169C92.0255 9.05685 92.558 9.18923 93.0433 9.43908C93.5738 9.71215 94.0375 10.1098 94.3984 10.6013C94.8203 11.1774 95.1463 11.8244 95.3626 12.5149C95.6232 13.3848 95.7477 14.2933 95.7313 15.2051C95.733 17.2604 95.262 18.8082 94.2977 19.8179ZM104.843 19.6906V0.100442H101.314L101.293 20.4851C101.293 21.9486 101.623 23.0444 102.298 23.7762C102.974 24.5079 103.92 24.872 105.171 24.872C105.663 24.8795 106.153 24.8143 106.628 24.6783C106.874 24.6137 107.099 24.5491 107.311 24.4846V21.5217H106.613C105.439 21.5217 104.843 20.9156 104.843 19.6906ZM117.831 19.2602H117.646L113.03 5.55979H109.152L115.861 24.4182C115.564 25.2306 115.214 26.021 114.815 26.7838C114.525 27.3481 114.174 27.8753 113.769 28.3549C113.462 28.7062 113.092 28.9908 112.68 29.1925C112.292 29.3689 111.872 29.4569 111.45 29.4507C111.265 29.4547 111.08 29.4475 110.897 29.4292C110.725 29.4264 110.554 29.412 110.385 29.3862C110.204 29.3625 110.026 29.3266 109.85 29.2785L109.509 32.6126C109.727 32.7089 109.957 32.7734 110.192 32.8045C110.722 32.9413 111.266 33.0064 111.811 32.9982C113.392 32.9982 114.829 32.3328 116.078 30.977C117.327 29.6211 118.519 27.4725 119.587 24.4613L126.292 5.55979H122.406L117.831 19.2602ZM163.839 5.58311C163.581 5.54023 163.321 5.51864 163.06 5.51854C161.808 5.51854 160.842 5.87724 160.188 6.61615C159.534 7.35506 159.183 8.4437 159.183 9.88387V24.8289H162.731V10.6802C162.731 9.47495 163.327 8.87414 164.496 8.87414H165.204V5.90593C164.973 5.85627 164.745 5.79158 164.521 5.71224C164.339 5.66919 164.113 5.62615 163.839 5.58311ZM162.922 3.79859C163.279 3.79753 163.628 3.68524 163.925 3.47589C164.221 3.26655 164.452 2.96955 164.588 2.62241C164.724 2.27527 164.759 1.89355 164.689 1.52548C164.619 1.15741 164.446 0.81949 164.193 0.554407C163.94 0.289324 163.618 0.108967 163.268 0.0361173C162.917 -0.0367323 162.554 0.00119289 162.224 0.145103C161.894 0.289012 161.612 0.532451 161.414 0.844671C161.216 1.15689 161.11 1.52389 161.11 1.8993C161.11 2.14964 161.158 2.39744 161.249 2.62848C161.341 2.85952 161.475 3.06926 161.644 3.2457C161.813 3.42214 162.014 3.56179 162.234 3.65667C162.455 3.75154 162.691 3.79977 162.929 3.79859H162.922ZM172.066 6.61615C171.409 5.88441 170.445 5.51854 169.194 5.51854C168.933 5.51864 168.672 5.54023 168.414 5.58311C168.148 5.62615 167.923 5.66919 167.732 5.71224C167.508 5.79163 167.28 5.85632 167.049 5.90593V8.87414H167.764C168.935 8.87414 169.529 9.47495 169.529 10.6802V24.8289H173.078V9.88387C173.078 8.4437 172.751 7.35327 172.073 6.61615H172.066ZM21.1489 6.95251e-06C20.4253 -0.00117148 19.7085 0.147467 19.0396 0.437433C18.3707 0.727399 17.7626 1.15301 17.2503 1.68996C16.7379 2.22691 16.3312 2.86467 16.0534 3.56682C15.7756 4.26898 15.6322 5.02176 15.6313 5.78218V9.58974C15.6313 10.102 15.4376 10.5933 15.0929 10.9556C14.7482 11.3178 14.2807 11.5213 13.7932 11.5213C13.3057 11.5213 12.8382 11.3178 12.4935 10.9556C12.1488 10.5933 11.9551 10.102 11.9551 9.58974V5.78218C11.9297 4.26227 11.3373 2.81364 10.3055 1.74823C9.27364 0.682817 7.88494 0.085838 6.43838 0.085838C4.99183 0.085838 3.60313 0.682817 2.57131 1.74823C1.53948 2.81364 0.947071 4.26227 0.921631 5.78218V23.048C0.936195 23.5503 1.13632 24.027 1.4796 24.3769C1.82287 24.7268 2.28231 24.9225 2.76055 24.9225C3.23878 24.9225 3.69823 24.7268 4.0415 24.3769C4.38478 24.027 4.5849 23.5503 4.59947 23.048V5.78218C4.61403 5.27985 4.81416 4.80322 5.15743 4.4533C5.50071 4.10339 5.96015 3.90769 6.43838 3.90769C6.91662 3.90769 7.37606 4.10339 7.71934 4.4533C8.06261 4.80322 8.26274 5.27985 8.2773 5.78218V9.59153C8.2773 11.1289 8.85844 12.6032 9.89287 13.6903C10.9273 14.7773 12.3303 15.3881 13.7932 15.3881C15.2561 15.3881 16.6591 14.7773 17.6935 13.6903C18.728 12.6032 19.3091 11.1289 19.3091 9.59153V5.78218C19.3237 5.27985 19.5238 4.80322 19.8671 4.4533C20.2103 4.10339 20.6698 3.90769 21.148 3.90769C21.6263 3.90769 22.0857 4.10339 22.429 4.4533C22.7722 4.80322 22.9724 5.27985 22.9869 5.78218V23.048C23.0015 23.5503 23.2016 24.027 23.5449 24.3769C23.8882 24.7268 24.3476 24.9225 24.8259 24.9225C25.3041 24.9225 25.7635 24.7268 26.1068 24.3769C26.4501 24.027 26.6502 23.5503 26.6648 23.048V5.78218C26.6639 5.02191 26.5205 4.26927 26.2428 3.56724C25.9651 2.8652 25.5586 2.22752 25.0464 1.69059C24.5342 1.15367 23.9264 0.72802 23.2576 0.437948C22.5889 0.147877 21.8723 -0.000935723 21.1489 6.95251e-06ZM150.092 6.95251e-06C149.368 -0.00117148 148.651 0.147467 147.982 0.437433C147.313 0.727399 146.705 1.15301 146.193 1.68996C145.681 2.22691 145.274 2.86467 144.996 3.56682C144.718 4.26898 144.575 5.02176 144.574 5.78218V9.58974C144.574 10.102 144.38 10.5933 144.036 10.9556C143.691 11.3178 143.223 11.5213 142.736 11.5213C142.248 11.5213 141.781 11.3178 141.436 10.9556C141.091 10.5933 140.898 10.102 140.898 9.58974V5.78218C140.872 4.26227 140.28 2.81364 139.248 1.74823C138.216 0.682817 136.828 0.085838 135.381 0.085838C133.935 0.085838 132.546 0.682817 131.514 1.74823C130.482 2.81364 129.89 4.26227 129.864 5.78218V23.048C129.879 23.5503 130.079 24.027 130.422 24.3769C130.766 24.7268 131.225 24.9225 131.703 24.9225C132.181 24.9225 132.641 24.7268 132.984 24.3769C133.327 24.027 133.528 23.5503 133.542 23.048V5.78218C133.557 5.27985 133.757 4.80322 134.1 4.4533C134.443 4.10339 134.903 3.90769 135.381 3.90769C135.859 3.90769 136.319 4.10339 136.662 4.4533C137.005 4.80322 137.205 5.27985 137.22 5.78218V9.59153C137.22 11.1289 137.801 12.6032 138.836 13.6903C139.87 14.7773 141.273 15.3881 142.736 15.3881C144.199 15.3881 145.602 14.7773 146.636 13.6903C147.671 12.6032 148.252 11.1289 148.252 9.59153V5.78218C148.266 5.27985 148.466 4.80322 148.81 4.4533C149.153 4.10339 149.612 3.90769 150.091 3.90769C150.569 3.90769 151.028 4.10339 151.372 4.4533C151.715 4.80322 151.915 5.27985 151.93 5.78218V23.048C151.944 23.5503 152.144 24.027 152.488 24.3769C152.831 24.7268 153.29 24.9225 153.769 24.9225C154.247 24.9225 154.706 24.7268 155.049 24.3769C155.393 24.027 155.593 23.5503 155.607 23.048V5.78218C155.607 5.02191 155.463 4.26927 155.186 3.56724C154.908 2.8652 154.501 2.22752 153.989 1.69059C153.477 1.15367 152.869 0.72802 152.2 0.437948C151.532 0.147877 150.815 -0.000935723 150.092 6.95251e-06ZM169.337 3.79859C169.695 3.79789 170.044 3.68589 170.341 3.47676C170.637 3.26764 170.869 2.97076 171.005 2.62365C171.141 2.27653 171.176 1.89476 171.106 1.52657C171.036 1.15838 170.864 0.820296 170.611 0.555034C170.358 0.289772 170.036 0.109238 169.685 0.0362432C169.335 -0.0367512 168.972 0.00107 168.642 0.144928C168.312 0.288786 168.03 0.532224 167.831 0.844483C167.633 1.15674 167.527 1.52381 167.527 1.8993C167.527 2.14896 167.574 2.39612 167.665 2.62668C167.756 2.85724 167.89 3.06668 168.058 3.24305C168.226 3.41941 168.425 3.55925 168.645 3.65457C168.865 3.74989 169.1 3.79883 169.337 3.79859Z" fill="#F6F8FF"/>
</svg>
